<?xml version="1.0" standalone="no"?><!DOCTYPE svg PUBLIC "-//W3C//DTD SVG 1.1//EN" "http://www.w3.org/Graphics/SVG/1.1/DTD/svg11.dtd"><svg t="1647825716082" class="icon" viewBox="0 0 1024 1024" version="1.1" xmlns="http://www.w3.org/2000/svg" p-id="39608" xmlns:xlink="http://www.w3.org/1999/xlink" width="16" height="16"><defs><style type="text/css">@font-face { font-family: feedback-iconfont; src: url("//at.alicdn.com/t/font_1031158_u69w8yhxdu.woff2?t=1630033759944") format("woff2"), url("//at.alicdn.com/t/font_1031158_u69w8yhxdu.woff?t=1630033759944") format("woff"), url("//at.alicdn.com/t/font_1031158_u69w8yhxdu.ttf?t=1630033759944") format("truetype"); }
</style></defs><path d="M252.068571 906.496h520.283429c89.581714 0 134.144-44.562286 134.144-132.845714V250.331429c0-88.283429-44.562286-132.845714-134.144-132.845715H252.068571c-89.142857 0-134.582857 44.141714-134.582857 132.845715V773.668571c0 88.704 45.44 132.845714 134.582857 132.845715z m1.28-68.992c-42.843429 0-66.852571-22.710857-66.852571-67.291429V253.805714c0-44.580571 24.009143-67.291429 66.852571-67.291428h517.723429c42.422857 0 66.432 22.710857 66.432 67.291428V770.194286c0 44.580571-24.009143 67.291429-66.432 67.291428z m259.291429-591.433143c-9.856 0-17.133714 4.278857-25.289143 11.995429l-145.28 144.859428a31.030857 31.030857 0 0 0-8.996571 22.290286c0 17.554286 14.134857 30.848 31.268571 30.848 9.435429 0 17.152-3.419429 23.149714-9.417143l52.717715-53.577143 43.702857-51.858285-3.419429 90.861714v158.134857l3.437715 90.88-43.702858-51.876571-52.736-53.997715a31.634286 31.634286 0 0 0-23.131428-9.435428c-17.152 0-31.286857 13.293714-31.286857 30.866285 0 8.996571 3.419429 16.713143 8.996571 22.290286l145.28 144.859429c8.155429 8.137143 15.433143 12.434286 25.289143 12.434285 8.996571 0 16.274286-3.876571 24.868571-12.434285l145.28-144.859429c5.558857-5.577143 8.557714-13.293714 8.557715-22.308571 0-17.554286-13.275429-30.848-30.848-30.848-9.435429 0-17.152 3.858286-22.710857 9.435428l-53.138286 53.997715-43.300572 51.437714 3.437715-90.441143V432.091429l-3.437715-90.422858 43.300572 51.419429 53.138286 53.577143a31.634286 31.634286 0 0 0 22.710857 9.417143c17.572571 0 30.866286-13.275429 30.866285-30.848 0-8.996571-3.017143-16.713143-8.594285-22.290286l-145.28-144.859429c-8.557714-8.557714-15.853714-11.995429-24.850286-11.995428z" p-id="39609"></path></svg>