<?xml version="1.0" standalone="no"?><!DOCTYPE svg PUBLIC "-//W3C//DTD SVG 1.1//EN" "http://www.w3.org/Graphics/SVG/1.1/DTD/svg11.dtd"><svg t="1647825783339" class="icon" viewBox="0 0 1024 1024" version="1.1" xmlns="http://www.w3.org/2000/svg" p-id="44361" xmlns:xlink="http://www.w3.org/1999/xlink" width="16" height="16"><defs><style type="text/css">@font-face { font-family: feedback-iconfont; src: url("//at.alicdn.com/t/font_1031158_u69w8yhxdu.woff2?t=1630033759944") format("woff2"), url("//at.alicdn.com/t/font_1031158_u69w8yhxdu.woff?t=1630033759944") format("woff"), url("//at.alicdn.com/t/font_1031158_u69w8yhxdu.ttf?t=1630033759944") format("truetype"); }
</style></defs><path d="M512 85.333333c235.52 0 426.666667 191.146667 426.666667 426.666667s-191.146667 426.666667-426.666667 426.666667S85.333333 747.52 85.333333 512 276.48 85.333333 512 85.333333z m0 85.333334c-188.373333 0-341.333333 152.96-341.333333 341.333333s152.96 341.333333 341.333333 341.333333 341.333333-152.96 341.333333-341.333333-152.96-341.333333-341.333333-341.333333z m0 597.333333c-84.010667 0-161.450667-34.858667-213.333333-93.098667 26.154667-39.68 121.941333-77.568 213.333333-77.568s187.178667 37.888 213.333333 77.568C673.450667 733.141333 596.010667 768 512 768z m0-469.333333c70.826667 0 128 57.173333 128 128s-57.173333 128-128 128-128-57.173333-128-128 57.173333-128 128-128z" p-id="44362"></path></svg>