<?xml version="1.0" standalone="no"?><!DOCTYPE svg PUBLIC "-//W3C//DTD SVG 1.1//EN" "http://www.w3.org/Graphics/SVG/1.1/DTD/svg11.dtd"><svg t="1647827752940" class="icon" viewBox="0 0 1024 1024" version="1.1" xmlns="http://www.w3.org/2000/svg" p-id="81719" xmlns:xlink="http://www.w3.org/1999/xlink" width="16" height="16"><defs><style type="text/css">@font-face { font-family: feedback-iconfont; src: url("//at.alicdn.com/t/font_1031158_u69w8yhxdu.woff2?t=1630033759944") format("woff2"), url("//at.alicdn.com/t/font_1031158_u69w8yhxdu.woff?t=1630033759944") format("woff"), url("//at.alicdn.com/t/font_1031158_u69w8yhxdu.ttf?t=1630033759944") format("truetype"); }
</style></defs><path d="M305.149 423.383v177.326c0 17.6-14.4 32-32 32H95.823c-17.6 0-32-14.4-32-32V423.383c0-17.6 14.4-32 32-32h177.326c17.6 0 32 14.4 32 32zM632.663 423.383v177.326c0 17.6-14.4 32-32 32H423.337c-17.6 0-32-14.4-32-32V423.383c0-17.6 14.4-32 32-32h177.326c17.6 0 32 14.4 32 32zM960.177 423.383v177.326c0 17.6-14.4 32-32 32H750.851c-17.6 0-32-14.4-32-32V423.383c0-17.6 14.4-32 32-32h177.326c17.6 0 32 14.4 32 32z" p-id="81720"></path></svg>