<?xml version="1.0" standalone="no"?><!DOCTYPE svg PUBLIC "-//W3C//DTD SVG 1.1//EN" "http://www.w3.org/Graphics/SVG/1.1/DTD/svg11.dtd"><svg t="1647824997560" class="icon" viewBox="0 0 1024 1024" version="1.1" xmlns="http://www.w3.org/2000/svg" p-id="2182" xmlns:xlink="http://www.w3.org/1999/xlink" width="200" height="200"><defs><style type="text/css">@font-face { font-family: feedback-iconfont; src: url("//at.alicdn.com/t/font_1031158_u69w8yhxdu.woff2?t=1630033759944") format("woff2"), url("//at.alicdn.com/t/font_1031158_u69w8yhxdu.woff?t=1630033759944") format("woff"), url("//at.alicdn.com/t/font_1031158_u69w8yhxdu.ttf?t=1630033759944") format("truetype"); }
</style></defs><path d="M1008 358.4L665.6 16c-20.8-20.8-59.2-20.8-81.6 0L299.2 302.4c-72 72-81.6 187.2-25.6 268.8L38.4 809.6C12.8 832 0 860.8 0 896s12.8 68.8 38.4 89.6C64 1011.2 94.4 1024 128 1024s64-12.8 89.6-38.4l235.2-235.2c33.6 25.6 76.8 38.4 120 38.4 56 0 110.4-20.8 153.6-64l286.4-286.4c16-20.8 16-54.4-4.8-80zM153.6 924.8c-17.6 17.6-43.2 17.6-56 0-8-8-12.8-17.6-12.8-30.4 0-8 4.8-20.8 12.8-30.4l230.4-235.2 56 56-230.4 240z m324.8-259.2l-120-120c-51.2-51.2-51.2-132.8 0-184l33.6-33.6 302.4 302.4-33.6 33.6c-49.6 52.8-131.2 52.8-182.4 1.6z m281.6-99.2l-304-302.4L624 92.8l302.4 302.4-166.4 171.2z" p-id="2183"></path><path d="M384 468.8a43.2 43.2 0 1 0 86.4 0 43.2 43.2 0 1 0-86.4 0Z" p-id="2184"></path><path d="M512 596.8a43.2 43.2 0 1 0 86.4 0 43.2 43.2 0 1 0-86.4 0Z" p-id="2185"></path></svg>