<?xml version="1.0" standalone="no"?><!DOCTYPE svg PUBLIC "-//W3C//DTD SVG 1.1//EN" "http://www.w3.org/Graphics/SVG/1.1/DTD/svg11.dtd"><svg t="1647825818198" class="icon" viewBox="0 0 1024 1024" version="1.1" xmlns="http://www.w3.org/2000/svg" p-id="46084" xmlns:xlink="http://www.w3.org/1999/xlink" width="16" height="16"><defs><style type="text/css">@font-face { font-family: feedback-iconfont; src: url("//at.alicdn.com/t/font_1031158_u69w8yhxdu.woff2?t=1630033759944") format("woff2"), url("//at.alicdn.com/t/font_1031158_u69w8yhxdu.woff?t=1630033759944") format("woff"), url("//at.alicdn.com/t/font_1031158_u69w8yhxdu.ttf?t=1630033759944") format("truetype"); }
</style></defs><path d="M16 128a16 16 0 0 1-16-16c0-26.464 21.536-48 48-48a16 16 0 1 1 0 32 16 16 0 0 0-16 16 16 16 0 0 1-16 16zM784 128a16 16 0 0 1-16-16 16 16 0 0 0-16-16 16 16 0 1 1 0-32c26.464 0 48 21.536 48 48a16 16 0 0 1-16 16zM784 224H16a16 16 0 1 1 0-32h768a16 16 0 1 1 0 32zM784 1024c-132.336 0-240-107.664-240-240a16 16 0 1 1 32 0c0 114.688 93.312 208 208 208s208-93.312 208-208a16 16 0 1 1 32 0c0 132.336-107.664 240-240 240z" p-id="46085"></path><path d="M784 439.152a16 16 0 0 1-16-16V112a16 16 0 1 1 32 0v311.152a16 16 0 0 1-16 16zM16 800a16 16 0 0 1-16-16V112a16 16 0 1 1 32 0v672a16 16 0 0 1-16 16z" p-id="46086"></path><path d="M560 800H16a16 16 0 1 1 0-32h544a16 16 0 1 1 0 32zM1008 720a16 16 0 0 1-16-16c0-149.984-122.016-272-272-272a16 16 0 1 1 0-32c167.632 0 304 136.368 304 304a16 16 0 0 1-16 16z" p-id="46087"></path><path d="M560 592a16 16 0 1 1 0-32c79.408 0 144-64.592 144-144a16 16 0 1 1 32 0c0 97.04-78.96 176-176 176z" p-id="46088"></path><path d="M560 800a16 16 0 0 1-16-16V576a16 16 0 1 1 32 0v208a16 16 0 0 1-16 16zM1008 800a16 16 0 0 1-16-16v-80a16 16 0 1 1 32 0v80a16 16 0 0 1-16 16zM136 160A40.032 40.032 0 0 1 96 120v-80C96 17.936 113.936 0 136 0S176 17.936 176 40v80C176 142.064 158.064 160 136 160z m0-128c-4.4 0-8 3.6-8 8v80c0 4.4 3.6 8 8 8s8-3.6 8-8v-80c0-4.4-3.6-8-8-8zM312 160A40.032 40.032 0 0 1 272 120v-80C272 17.936 289.936 0 312 0S352 17.936 352 40v80c0 22.064-17.936 40-40 40z m0-128c-4.4 0-8 3.6-8 8v80c0 4.4 3.6 8 8 8s8-3.6 8-8v-80c0-4.4-3.6-8-8-8zM488 160A40.032 40.032 0 0 1 448 120v-80C448 17.936 465.936 0 488 0S528 17.936 528 40v80c0 22.064-17.936 40-40 40z m0-128c-4.4 0-8 3.6-8 8v80c0 4.4 3.6 8 8 8s8-3.6 8-8v-80c0-4.4-3.6-8-8-8zM664 160A40.032 40.032 0 0 1 624 120v-80C624 17.936 641.936 0 664 0S704 17.936 704 40v80c0 22.064-17.936 40-40 40z m0-128c-4.4 0-8 3.6-8 8v80c0 4.4 3.6 8 8 8s8-3.6 8-8v-80c0-4.4-3.6-8-8-8z" p-id="46089"></path><path d="M112 96H48a16 16 0 1 1 0-32h64a16 16 0 1 1 0 32zM288 96h-128a16 16 0 1 1 0-32h128a16 16 0 1 1 0 32zM464 96h-128a16 16 0 1 1 0-32h128a16 16 0 1 1 0 32zM640 96h-128a16 16 0 1 1 0-32h128a16 16 0 1 1 0 32zM752 96h-64a16 16 0 1 1 0-32h64a16 16 0 1 1 0 32zM784.048 960.032c-15.776 0-31.584-2.144-46.944-6.384a174.8 174.8 0 0 1-106.208-82.832 174.8 174.8 0 0 1-16.56-133.664c21.008-76.064 90.752-129.168 169.584-129.168 15.776 0 31.584 2.144 46.944 6.384a174.832 174.832 0 0 1 106.224 82.832 174.832 174.832 0 0 1 16.56 133.68c-21.024 76.048-90.752 129.152-169.6 129.152z m-0.128-320.064a144.368 144.368 0 0 0-138.736 105.696c-10.24 37.04-5.44 75.888 13.552 109.36s49.84 57.536 86.912 67.76a144.368 144.368 0 0 0 38.4 5.232 144.4 144.4 0 0 0 138.752-105.68c10.24-37.056 5.44-75.904-13.552-109.376s-49.84-57.536-86.928-67.76a144.288 144.288 0 0 0-38.4-5.232z" p-id="46090"></path><path d="M784 800a16 16 0 0 1-16-16v-80a16 16 0 1 1 32 0v80a16 16 0 0 1-16 16z" p-id="46091"></path><path d="M840.128 856.992a16 16 0 0 1-11.408-4.768l-56.128-56.992a16 16 0 1 1 22.816-22.464l56.128 56.992a16.032 16.032 0 0 1-11.408 27.232zM144 352H80a16 16 0 0 1-16-16v-64a16 16 0 0 1 16-16h64a16 16 0 0 1 16 16v64a16 16 0 0 1-16 16z m-48-32h32v-32H96v32zM288 352h-64a16 16 0 0 1-16-16v-64a16 16 0 0 1 16-16h64a16 16 0 0 1 16 16v64a16 16 0 0 1-16 16z m-48-32h32v-32h-32v32zM432 352h-64a16 16 0 0 1-16-16v-64a16 16 0 0 1 16-16h64a16 16 0 0 1 16 16v64a16 16 0 0 1-16 16z m-48-32h32v-32h-32v32zM576 352h-64a16 16 0 0 1-16-16v-64a16 16 0 0 1 16-16h64a16 16 0 0 1 16 16v64a16 16 0 0 1-16 16z m-48-32h32v-32h-32v32zM144 480H80a16 16 0 0 1-16-16v-64a16 16 0 0 1 16-16h64a16 16 0 0 1 16 16v64a16 16 0 0 1-16 16z m-48-32h32v-32H96v32zM288 480h-64a16 16 0 0 1-16-16v-64a16 16 0 0 1 16-16h64a16 16 0 0 1 16 16v64a16 16 0 0 1-16 16z m-48-32h32v-32h-32v32zM432 480h-64a16 16 0 0 1-16-16v-64a16 16 0 0 1 16-16h64a16 16 0 0 1 16 16v64a16 16 0 0 1-16 16z m-48-32h32v-32h-32v32zM144 608H80a16 16 0 0 1-16-16v-64a16 16 0 0 1 16-16h64a16 16 0 0 1 16 16v64a16 16 0 0 1-16 16z m-48-32h32v-32H96v32zM288 608h-64a16 16 0 0 1-16-16v-64a16 16 0 0 1 16-16h64a16 16 0 0 1 16 16v64a16 16 0 0 1-16 16z m-48-32h32v-32h-32v32zM432 608h-64a16 16 0 0 1-16-16v-64a16 16 0 0 1 16-16h64a16 16 0 0 1 16 16v64a16 16 0 0 1-16 16z m-48-32h32v-32h-32v32zM144 736H80a16 16 0 0 1-16-16v-64a16 16 0 0 1 16-16h64a16 16 0 0 1 16 16v64a16 16 0 0 1-16 16z m-48-32h32v-32H96v32zM288 736h-64a16 16 0 0 1-16-16v-64a16 16 0 0 1 16-16h64a16 16 0 0 1 16 16v64a16 16 0 0 1-16 16z m-48-32h32v-32h-32v32zM432 736h-64a16 16 0 0 1-16-16v-64a16 16 0 0 1 16-16h64a16 16 0 0 1 16 16v64a16 16 0 0 1-16 16z m-48-32h32v-32h-32v32zM576 480h-64a16 16 0 0 1-16-16v-64a16 16 0 0 1 16-16h64a16 16 0 0 1 16 16v64a16 16 0 0 1-16 16z m-48-32h32v-32h-32v32zM720 352h-64a16 16 0 0 1-16-16v-64a16 16 0 0 1 16-16h64a16 16 0 0 1 16 16v64a16 16 0 0 1-16 16z m-48-32h32v-32h-32v32z" p-id="46092"></path></svg>