<?xml version="1.0" standalone="no"?><!DOCTYPE svg PUBLIC "-//W3C//DTD SVG 1.1//EN" "http://www.w3.org/Graphics/SVG/1.1/DTD/svg11.dtd"><svg t="1647828417049" class="icon" viewBox="0 0 1024 1024" version="1.1" xmlns="http://www.w3.org/2000/svg" p-id="97280" xmlns:xlink="http://www.w3.org/1999/xlink" width="16" height="16"><defs><style type="text/css">@font-face { font-family: feedback-iconfont; src: url("//at.alicdn.com/t/font_1031158_u69w8yhxdu.woff2?t=1630033759944") format("woff2"), url("//at.alicdn.com/t/font_1031158_u69w8yhxdu.woff?t=1630033759944") format("woff"), url("//at.alicdn.com/t/font_1031158_u69w8yhxdu.ttf?t=1630033759944") format("truetype"); }
</style></defs><path d="M827.733333 313.173333L710.826667 196.266667A81.92 81.92 0 0 0 597.333333 193.28l-85.333333 85.333333-55.04-52.906666a42.666667 42.666667 0 0 0-60.586667 60.586666L449.28 341.333333 213.333333 577.28a85.333333 85.333333 0 0 0-24.32 51.626667L170.666667 806.826667a42.666667 42.666667 0 0 0 12.373333 34.133333A42.666667 42.666667 0 0 0 213.333333 853.333333h3.84l177.92-16.213333a85.333333 85.333333 0 0 0 51.626667-24.32l238.08-238.08 52.906667 52.906667a42.666667 42.666667 0 0 0 60.586666 0 42.666667 42.666667 0 0 0 0-60.586667l-52.906666-52.906667 85.333333-85.333333a81.92 81.92 0 0 0-2.986667-115.626667z m-554.666666 324.266667L512 399.36l114.773333 115.2-119.04 119.04" p-id="97281"></path></svg>