<?xml version="1.0" standalone="no"?><!DOCTYPE svg PUBLIC "-//W3C//DTD SVG 1.1//EN" "http://www.w3.org/Graphics/SVG/1.1/DTD/svg11.dtd"><svg t="1647825769093" class="icon" viewBox="0 0 1024 1024" version="1.1" xmlns="http://www.w3.org/2000/svg" p-id="42447" xmlns:xlink="http://www.w3.org/1999/xlink" width="16" height="16"><defs><style type="text/css">@font-face { font-family: feedback-iconfont; src: url("//at.alicdn.com/t/font_1031158_u69w8yhxdu.woff2?t=1630033759944") format("woff2"), url("//at.alicdn.com/t/font_1031158_u69w8yhxdu.woff?t=1630033759944") format("woff"), url("//at.alicdn.com/t/font_1031158_u69w8yhxdu.ttf?t=1630033759944") format("truetype"); }
</style></defs><path d="M856.615385 49.230769H169.353846c-66.953846 0-120.123077 53.169231-120.123077 120.123077v683.323077c0 66.953846 53.169231 120.123077 120.123077 120.123077h685.292308c66.953846 0 120.123077-53.169231 120.123077-120.123077V169.353846c1.969231-66.953846-53.169231-120.123077-118.153846-120.123077zM208.738462 250.092308c0-21.661538 17.723077-39.384615 39.384615-39.384616h450.953846c21.661538 0 39.384615 17.723077 39.384615 39.384616v41.353846c0 21.661538-17.723077 39.384615-39.384615 39.384615h-452.923077c-21.661538 0-39.384615-17.723077-39.384615-39.384615v-41.353846z m474.584615 523.815384c0 21.661538-17.723077 39.384615-39.384615 39.384616h-393.846154c-21.661538 0-39.384615-17.723077-39.384616-39.384616v-39.384615c0-21.661538 17.723077-39.384615 39.384616-39.384615h393.846154c21.661538 0 39.384615 17.723077 39.384615 39.384615v39.384615zM815.261538 531.692308c0 21.661538-17.723077 39.384615-39.384615 39.384615H250.092308c-21.661538 0-39.384615-17.723077-39.384616-39.384615v-39.384616c0-21.661538 17.723077-39.384615 39.384616-39.384615h523.815384c21.661538 0 39.384615 17.723077 39.384616 39.384615v39.384616z" p-id="42448"></path></svg>