<?xml version="1.0" standalone="no"?><!DOCTYPE svg PUBLIC "-//W3C//DTD SVG 1.1//EN" "http://www.w3.org/Graphics/SVG/1.1/DTD/svg11.dtd"><svg t="1647827947461" class="icon" viewBox="0 0 1024 1024" version="1.1" xmlns="http://www.w3.org/2000/svg" p-id="87718" xmlns:xlink="http://www.w3.org/1999/xlink" width="16" height="16"><defs><style type="text/css">@font-face { font-family: feedback-iconfont; src: url("//at.alicdn.com/t/font_1031158_u69w8yhxdu.woff2?t=1630033759944") format("woff2"), url("//at.alicdn.com/t/font_1031158_u69w8yhxdu.woff?t=1630033759944") format("woff"), url("//at.alicdn.com/t/font_1031158_u69w8yhxdu.ttf?t=1630033759944") format("truetype"); }
</style></defs><path d="M864 640l-147.2 0-89.6 89.6c-8.533333 8.533333-21.333333 8.533333-29.866667 0-4.266667-4.266667-6.4-6.4-8.533333-10.666667-2.133333-6.4-2.133333-10.666667-2.133333-14.933333l0-64-42.666667 0c-23.466667 0-42.666667-19.2-42.666667-42.666667L501.333333 384c0-23.466667 19.2-42.666667 42.666667-42.666667l320 0c23.466667 0 42.666667 19.2 42.666667 42.666667l0 213.333333C906.666667 620.8 887.466667 640 864 640zM864 384l-320 0 0 213.333333 85.333333 0 0 21.333333 0 21.333333 0 25.6 57.6-57.6c8.533333-8.533333 14.933333-10.666667 27.733333-10.666667l0 0 149.333333 0L864 384zM693.333333 490.666667c0-12.8 8.533333-21.333333 21.333333-21.333333 12.8 0 21.333333 8.533333 21.333333 21.333333s-8.533333 21.333333-21.333333 21.333333C704 512 693.333333 503.466667 693.333333 490.666667zM800 469.333333c12.8 0 21.333333 8.533333 21.333333 21.333333s-8.533333 21.333333-21.333333 21.333333c-12.8 0-21.333333-8.533333-21.333333-21.333333S789.333333 469.333333 800 469.333333zM629.333333 512c-12.8 0-21.333333-8.533333-21.333333-21.333333s8.533333-21.333333 21.333333-21.333333 21.333333 8.533333 21.333333 21.333333S642.133333 512 629.333333 512zM437.333333 640l-170.666667 0c-12.8 0-21.333333-8.533333-21.333333-21.333333s8.533333-21.333333 21.333333-21.333333l170.666667 0c12.8 0 21.333333 8.533333 21.333333 21.333333S450.133333 640 437.333333 640zM437.333333 384l-170.666667 0c-12.8 0-21.333333-8.533333-21.333333-21.333333s8.533333-21.333333 21.333333-21.333333l170.666667 0c12.8 0 21.333333 8.533333 21.333333 21.333333S450.133333 384 437.333333 384zM437.333333 512l-170.666667 0c-12.8 0-21.333333-8.533333-21.333333-21.333333s8.533333-21.333333 21.333333-21.333333l170.666667 0c12.8 0 21.333333 8.533333 21.333333 21.333333S450.133333 512 437.333333 512zM693.333333 192l-512 0 0 640 512 0 0-85.333333 42.666667 0 0 85.333333c0 23.466667-19.2 42.666667-42.666667 42.666667l-512 0c-23.466667 0-42.666667-19.2-42.666667-42.666667L138.666667 192c0-23.466667 19.2-42.666667 42.666667-42.666667l512 0c23.466667 0 42.666667 19.2 42.666667 42.666667l0 85.333333-42.666667 0L693.333333 192z" p-id="87719"></path></svg>