<?xml version="1.0" standalone="no"?><!DOCTYPE svg PUBLIC "-//W3C//DTD SVG 1.1//EN" "http://www.w3.org/Graphics/SVG/1.1/DTD/svg11.dtd"><svg t="1647825021966" class="icon" viewBox="0 0 1024 1024" version="1.1" xmlns="http://www.w3.org/2000/svg" p-id="2659" width="16" height="16" xmlns:xlink="http://www.w3.org/1999/xlink"><defs><style type="text/css">@font-face { font-family: feedback-iconfont; src: url("//at.alicdn.com/t/font_1031158_u69w8yhxdu.woff2?t=1630033759944") format("woff2"), url("//at.alicdn.com/t/font_1031158_u69w8yhxdu.woff?t=1630033759944") format("woff"), url("//at.alicdn.com/t/font_1031158_u69w8yhxdu.ttf?t=1630033759944") format("truetype"); }
</style></defs><path d="M859.6 135.6c15.6 0 28.6 13.2 28.6 28.6v695.2c0 15.6-13.2 28.6-28.6 28.6H164.4c-15.6 0-28.6-13.2-28.6-28.6V164.4c0-15.6 13.2-28.6 28.6-28.6h695.2m0-71.8H164.4C109.4 64 64 109.4 64 164.4v695.2C64 914.6 109.4 960 164.4 960h695.2c55 0 100.4-45.4 100.4-100.4V164.4c0-55-45.4-100.4-100.4-100.4z m-117 278.4c-12 0-59.8 31-105.2 31-8.4 0-16.8-1.2-25-4.8-39.4-15.6-74-27.4-118.2-27.4-40.6 0-83.6 13.2-119.4 27.4-3.6 1.2-7.2 2.4-9.6 3.6v-35.8c15.6-12 25-29.8 25-51.4 0-35.8-28.6-64.6-64.6-64.6s-64.6 28.6-64.6 64.6c0 20.4 9.6 39.4 25 51.4v424.2c0 21.6 18 39.4 39.4 39.4 18 0 32.2-12 37-27.4V770c1.2-3.6 1.2-6 1.2-9.6V672c2.4 0 4.8-1.2 6-2.4 39.4-16.8 86-33.4 131.4-33.4 62.2 0 86 32.2 138.6 32.2 37 0 72.8-13.2 104-27.4 8.4-3.6 14.4-7.2 14.4-15.6V356.6c3.6-8.2-4.6-14.2-15.4-14.2z" fill="" p-id="2660"></path></svg>