<?xml version="1.0" standalone="no"?><!DOCTYPE svg PUBLIC "-//W3C//DTD SVG 1.1//EN" "http://www.w3.org/Graphics/SVG/1.1/DTD/svg11.dtd"><svg t="1647825874797" class="icon" viewBox="0 0 1024 1024" version="1.1" xmlns="http://www.w3.org/2000/svg" p-id="49122" xmlns:xlink="http://www.w3.org/1999/xlink" width="16" height="16"><defs><style type="text/css">@font-face { font-family: feedback-iconfont; src: url("//at.alicdn.com/t/font_1031158_u69w8yhxdu.woff2?t=1630033759944") format("woff2"), url("//at.alicdn.com/t/font_1031158_u69w8yhxdu.woff?t=1630033759944") format("woff"), url("//at.alicdn.com/t/font_1031158_u69w8yhxdu.ttf?t=1630033759944") format("truetype"); }
</style></defs><path d="M87.04 349.184h855.04v60.928H87.04v-60.928z m0 274.944h855.04v60.928H87.04v-60.928z" fill="#333333" p-id="49123"></path><path d="M346.624 84.48h60.928v855.04h-60.928V84.48z m274.944 0h60.928v855.04h-60.928V84.48z" fill="#333333" p-id="49124"></path><path d="M863.744 970.24H165.376c-60.928 0-109.056-47.616-109.056-109.056V162.816c0-60.928 47.616-109.056 109.056-109.056h698.368c60.928 0 109.056 47.616 109.056 109.056v698.368c0 60.928-48.128 109.056-109.056 109.056zM911.36 115.2h-793.6v794.112h793.6V115.2z" fill="#333333" p-id="49125"></path></svg>