<?xml version="1.0" standalone="no"?><!DOCTYPE svg PUBLIC "-//W3C//DTD SVG 1.1//EN" "http://www.w3.org/Graphics/SVG/1.1/DTD/svg11.dtd"><svg t="1647828536060" class="icon" viewBox="0 0 1097 1024" version="1.1" xmlns="http://www.w3.org/2000/svg" p-id="101037" xmlns:xlink="http://www.w3.org/1999/xlink" width="17.140625" height="16"><defs><style type="text/css">@font-face { font-family: feedback-iconfont; src: url("//at.alicdn.com/t/font_1031158_u69w8yhxdu.woff2?t=1630033759944") format("woff2"), url("//at.alicdn.com/t/font_1031158_u69w8yhxdu.woff?t=1630033759944") format("woff"), url("//at.alicdn.com/t/font_1031158_u69w8yhxdu.ttf?t=1630033759944") format("truetype"); }
</style></defs><path d="M219.424 667.424v54.848q0 9.152-9.152 9.152H155.424q-9.152 0-9.152-9.152v-54.848q0-9.152 9.152-9.152h54.848q9.152 0 9.152 9.152z m73.152-146.272V576q0 9.152-9.152 9.152h-128q-9.152 0-9.152-9.152v-54.848q0-9.152 9.152-9.152h128q9.152 0 9.152 9.152z m-73.152-146.304v54.848q0 9.152-9.152 9.152H155.424q-9.152 0-9.152-9.152v-54.848q0-9.152 9.152-9.152h54.848q9.152 0 9.152 9.152z m585.152 292.576v54.848q0 9.152-9.152 9.152H301.696q-9.152 0-9.152-9.152v-54.848q0-9.152 9.152-9.152h493.728q9.152 0 9.152 9.152z m-365.728-146.272V576q0 9.152-9.152 9.152h-54.848q-9.152 0-9.152-9.152v-54.848q0-9.152 9.152-9.152h54.848q9.152 0 9.152 9.152z m-73.12-146.304v54.848q0 9.152-9.152 9.152H301.728q-9.152 0-9.152-9.152v-54.848q0-9.152 9.152-9.152h54.848q9.152 0 9.152 9.152z m219.424 146.304V576q0 9.152-9.152 9.152h-54.848Q512 585.152 512 576v-54.848q0-9.152 9.152-9.152H576q9.152 0 9.152 9.152zM512 374.848v54.848q0 9.152-9.152 9.152H448q-9.152 0-9.152-9.152v-54.848q0-9.152 9.152-9.152h54.848q9.152 0 9.152 9.152z m219.424 146.304V576q0 9.152-9.152 9.152h-54.848q-9.152 0-9.152-9.152v-54.848q0-9.152 9.152-9.152h54.848q9.152 0 9.152 9.152z m219.424 146.272v54.848q0 9.152-9.152 9.152h-54.848q-9.152 0-9.152-9.152v-54.848q0-9.152 9.152-9.152h54.848q9.152 0 9.152 9.152z m-292.576-292.576v54.848q0 9.152-9.152 9.152h-54.848q-9.152 0-9.152-9.152v-54.848q0-9.152 9.152-9.152h54.848q9.152 0 9.152 9.152z m146.304 0v54.848q0 9.152-9.152 9.152h-54.848q-9.152 0-9.152-9.152v-54.848q0-9.152 9.152-9.152h54.848q9.152 0 9.152 9.152z m146.272 0V576q0 9.152-9.152 9.152h-128q-9.152 0-9.152-9.152v-54.848q0-9.152 9.152-9.152h64v-137.152q0-9.152 9.152-9.152h54.848q9.152 0 9.152 9.152zM1024 804.576v-512H73.152v512H1024z m73.152-512v512q0 30.272-21.44 51.712t-51.712 21.44H73.152q-30.272 0-51.712-21.44T0 804.576v-512q0-30.272 21.44-51.712t51.712-21.44H1024q30.272 0 51.712 21.44t21.44 51.712z" fill="" p-id="101038"></path></svg>