<?xml version="1.0" standalone="no"?><!DOCTYPE svg PUBLIC "-//W3C//DTD SVG 1.1//EN" "http://www.w3.org/Graphics/SVG/1.1/DTD/svg11.dtd"><svg t="1647828369356" class="icon" viewBox="0 0 1024 1024" version="1.1" xmlns="http://www.w3.org/2000/svg" p-id="96468" xmlns:xlink="http://www.w3.org/1999/xlink" width="16" height="16"><defs><style type="text/css">@font-face { font-family: feedback-iconfont; src: url("//at.alicdn.com/t/font_1031158_u69w8yhxdu.woff2?t=1630033759944") format("woff2"), url("//at.alicdn.com/t/font_1031158_u69w8yhxdu.woff?t=1630033759944") format("woff"), url("//at.alicdn.com/t/font_1031158_u69w8yhxdu.ttf?t=1630033759944") format("truetype"); }
</style></defs><path d="M822.74 220.478H201.26c-20.435 0-37-16.565-37-37s16.565-37 37-37h621.48c20.435 0 37 16.565 37 37s-16.566 37-37 37zM512.307 877.522c-20.435 0-37-16.565-37-37V329.219c0-20.435 16.565-37 37-37s37 16.565 37 37v511.304c0 20.434-16.565 36.999-37 36.999z" p-id="96469"></path><path d="M336.988 565.914a36.857 36.857 0 0 1-24.395-9.194c-15.357-13.48-16.877-36.858-3.396-52.215L484.501 304.81c13.481-15.357 36.859-16.878 52.215-3.396 15.357 13.48 16.877 36.858 3.396 52.215L364.808 553.323c-7.314 8.332-17.541 12.591-27.82 12.591z" p-id="96470"></path><path d="M687.322 565.914c-10.28 0-20.506-4.258-27.82-12.591L484.197 353.628c-13.481-15.356-11.961-38.734 3.396-52.215 15.356-13.48 38.735-11.96 52.215 3.396l175.305 199.695c13.481 15.356 11.961 38.734-3.396 52.215a36.86 36.86 0 0 1-24.395 9.195z" p-id="96471"></path></svg>