<?xml version="1.0" standalone="no"?><!DOCTYPE svg PUBLIC "-//W3C//DTD SVG 1.1//EN" "http://www.w3.org/Graphics/SVG/1.1/DTD/svg11.dtd"><svg t="1647827900421" class="icon" viewBox="0 0 1024 1024" version="1.1" xmlns="http://www.w3.org/2000/svg" p-id="86694" xmlns:xlink="http://www.w3.org/1999/xlink" width="16" height="16"><defs><style type="text/css">@font-face { font-family: feedback-iconfont; src: url("//at.alicdn.com/t/font_1031158_u69w8yhxdu.woff2?t=1630033759944") format("woff2"), url("//at.alicdn.com/t/font_1031158_u69w8yhxdu.woff?t=1630033759944") format("woff"), url("//at.alicdn.com/t/font_1031158_u69w8yhxdu.ttf?t=1630033759944") format("truetype"); }
</style></defs><path d="M107.2 212.8m-67.2 0a4.2 4.2 0 1 0 134.4 0 4.2 4.2 0 1 0-134.4 0Z" p-id="86695"></path><path d="M980.8 145.6 297.6 145.6c-9.6 0-16 8-16 16l0 102.4c0 9.6 8 16 16 16l683.2 0c9.6 0 16-8 16-16l0-102.4C996.8 152 988.8 145.6 980.8 145.6z" p-id="86696"></path><path d="M96 497.6m-67.2 0a4.2 4.2 0 1 0 134.4 0 4.2 4.2 0 1 0-134.4 0Z" p-id="86697"></path><path d="M968 430.4 284.8 430.4c-9.6 0-16 8-16 16l0 102.4c0 9.6 8 16 16 16l683.2 0c9.6 0 16-8 16-16l0-102.4C984 438.4 977.6 430.4 968 430.4z" p-id="86698"></path><path d="M96 795.2m-67.2 0a4.2 4.2 0 1 0 134.4 0 4.2 4.2 0 1 0-134.4 0Z" p-id="86699"></path><path d="M968 728 284.8 728c-9.6 0-16 8-16 16l0 102.4c0 9.6 8 16 16 16l683.2 0c9.6 0 16-8 16-16l0-102.4C984 736 977.6 728 968 728z" p-id="86700"></path></svg>