<?xml version="1.0" standalone="no"?><!DOCTYPE svg PUBLIC "-//W3C//DTD SVG 1.1//EN" "http://www.w3.org/Graphics/SVG/1.1/DTD/svg11.dtd"><svg t="1647828061251" class="icon" viewBox="0 0 1024 1024" version="1.1" xmlns="http://www.w3.org/2000/svg" p-id="88507" xmlns:xlink="http://www.w3.org/1999/xlink" width="16" height="16"><defs><style type="text/css">@font-face { font-family: feedback-iconfont; src: url("//at.alicdn.com/t/font_1031158_u69w8yhxdu.woff2?t=1630033759944") format("woff2"), url("//at.alicdn.com/t/font_1031158_u69w8yhxdu.woff?t=1630033759944") format("woff"), url("//at.alicdn.com/t/font_1031158_u69w8yhxdu.ttf?t=1630033759944") format("truetype"); }
</style></defs><path d="M837.51936 354.32448L561.664 97.66912c-3.8144-23.0144-23.0144-46.0288-49.84832-46.0288-26.8288 0-46.0288 19.2-49.84832 46.0288L186.112 354.32448h-49.84832c-46.03392 0-84.32128 38.28736-84.32128 84.32128v444.48768c0 49.85344 38.28736 88.13568 84.32128 88.13568h751.104c46.0288 0 84.32128-38.28224 84.32128-84.31616v-448.3072c0-45.9264-38.28736-84.32128-84.32128-84.32128h-49.84832zM511.81568 151.33696c11.45344 0 26.8288-3.81952 34.46784-15.38048l233.7536 218.48064H243.59424l233.7536-218.48064c7.63392 7.6288 19.2 15.38048 34.46784 15.38048z m375.552 777.94304h-751.104c-26.83392 3.8144-46.03392-19.2-46.03392-46.0288V438.63552c0-26.8288 19.2-46.0288 46.0288-46.0288h751.10912c26.83392 0 46.03392 19.2 46.03392 46.0288v444.60544c0 26.83392-19.2 46.0288-46.0288 46.0288z" p-id="88508"></path><path d="M822.25152 511.50848H193.74592c-11.45344 0-19.2 7.63392-19.2 19.2 0 11.45344 7.63392 19.2 19.2 19.2h632.32c11.45344 0 19.2-7.63392 19.2-19.2s-11.56096-19.2-23.0144-19.2z m0 130.23744H193.74592c-11.45344 0-19.2 7.63392-19.2 19.2 0 11.45344 7.63392 19.2 19.2 19.2h632.32c11.45344 0 19.2-7.63392 19.2-19.2 0-11.45344-11.56096-19.2-23.0144-19.2z m-268.33408 126.53568H193.74592c-11.45344 0-19.2 7.6288-19.2 19.2 0 11.56096 7.63392 19.19488 19.2 19.19488h360.28416c11.45344 0 19.2-7.63392 19.2-19.2 0-11.56096-7.74656-19.2-19.31264-19.2z" p-id="88509"></path></svg>