<?xml version="1.0" standalone="no"?><!DOCTYPE svg PUBLIC "-//W3C//DTD SVG 1.1//EN" "http://www.w3.org/Graphics/SVG/1.1/DTD/svg11.dtd"><svg t="1647828309518" class="icon" viewBox="0 0 1024 1024" version="1.1" xmlns="http://www.w3.org/2000/svg" p-id="94157" xmlns:xlink="http://www.w3.org/1999/xlink" width="16" height="16"><defs><style type="text/css">@font-face { font-family: feedback-iconfont; src: url("//at.alicdn.com/t/font_1031158_u69w8yhxdu.woff2?t=1630033759944") format("woff2"), url("//at.alicdn.com/t/font_1031158_u69w8yhxdu.woff?t=1630033759944") format("woff"), url("//at.alicdn.com/t/font_1031158_u69w8yhxdu.ttf?t=1630033759944") format("truetype"); }
</style></defs><path d="M450.56 247.466667c17.066667-16.503467 37.2736-24.746667 60.586667-24.746667s43.2128 8.2432 59.733333 24.746667c17.066667 17.066667 25.6 37.256533 25.6 60.586666s-8.533333 43.246933-25.6 59.733334c-16.520533 17.066667-36.420267 25.6-59.733333 25.6-23.330133 0-43.52-8.533333-60.586667-25.6-16.503467-16.4864-24.746667-36.4032-24.746667-59.733334s8.2432-43.52 24.746667-60.586666z m189.44 401.92h-256V605.866667c0-34.696533 12.509867-64.5632 37.546667-89.6 25.019733-25.0368 55.176533-37.546667 90.453333-37.546667 35.259733 0 65.416533 12.509867 90.453333 37.546667 25.053867 25.0368 37.546667 54.903467 37.546667 89.6v43.52z" p-id="94158"></path><path d="M511.146667 955.733333a17.015467 17.015467 0 0 1-12.066134-5.000533L333.4144 785.066667H170.666667c-66.030933 0-102.4-36.369067-102.4-102.4V170.666667c0-66.030933 36.369067-102.4 102.4-102.4h682.666666c66.030933 0 102.4 36.369067 102.4 102.4v512c0 9.9328-0.631467 19.131733-1.8944 27.3408C947.012267 744.635733 924.16 785.066667 853.333333 785.066667h-164.4544l-165.666133 165.666133a17.015467 17.015467 0 0 1-12.066133 5.000533zM170.666667 102.4c-47.223467 0-68.266667 21.0432-68.266667 68.266667v512c0 47.223467 21.0432 68.266667 68.266667 68.266666h169.813333c4.522667 0 8.874667 1.792 12.066133 5.000534l158.600534 158.600533 158.600533-158.600533A17.066667 17.066667 0 0 1 681.813333 750.933333H853.333333c51.0976 0 62.583467-25.019733 66.884267-46.813866A147.114667 147.114667 0 0 0 921.6 682.666667V170.666667c0-47.223467-21.0432-68.266667-68.266667-68.266667H170.666667z m469.333333 564.053333h-256a17.066667 17.066667 0 0 1-17.066667-17.066666V605.866667c0-39.236267 14.318933-73.454933 42.5472-101.666134 28.2112-28.228267 62.702933-42.5472 102.519467-42.5472 39.799467 0 74.2912 14.318933 102.519467 42.5472C642.747733 532.411733 657.066667 566.613333 657.066667 605.866667v43.52a17.066667 17.066667 0 0 1-17.066667 17.066666z m-238.933333-34.133333h221.866666V605.866667c0-30.276267-10.6496-55.637333-32.546133-77.533867S542.839467 495.786667 512 495.786667c-30.856533 0-56.490667 10.6496-78.370133 32.546133-21.9136 21.896533-32.5632 47.274667-32.5632 77.533867v26.453333z m110.08-221.866667c-27.904 0-52.360533-10.2912-72.6528-30.600533-19.729067-19.712-29.7472-43.861333-29.7472-71.799467 0-27.8016 9.949867-52.1728 29.5424-72.448 20.6848-20.002133 45.056-29.952 72.8576-29.952 27.886933 0 52.036267 10.001067 71.799466 29.7472 20.292267 20.309333 30.600533 44.765867 30.600534 72.6528 0 28.040533-10.359467 52.258133-30.8224 72.004267-19.3536 20.036267-43.5712 30.395733-71.5776 30.395733z m0-170.666666c-18.8928 0-34.850133 6.519467-48.725334 19.950933-13.0048 13.482667-19.541333 29.422933-19.541333 48.315733 0 18.807467 6.4512 34.389333 19.729067 47.650134 13.8752 13.858133 29.7472 20.616533 48.5376 20.616533 18.653867 0 34.184533-6.673067 47.4624-20.394667 14.1312-13.653333 20.804267-29.184 20.804266-47.872 0-18.7904-6.741333-34.645333-20.599466-48.520533-13.294933-13.277867-28.893867-19.746133-47.6672-19.746133z" p-id="94159"></path></svg>