<?xml version="1.0" standalone="no"?><!DOCTYPE svg PUBLIC "-//W3C//DTD SVG 1.1//EN" "http://www.w3.org/Graphics/SVG/1.1/DTD/svg11.dtd"><svg t="1647825310562" class="icon" viewBox="0 0 1024 1024" version="1.1" xmlns="http://www.w3.org/2000/svg" p-id="17011" xmlns:xlink="http://www.w3.org/1999/xlink" width="16" height="16"><defs><style type="text/css">@font-face { font-family: feedback-iconfont; src: url("//at.alicdn.com/t/font_1031158_u69w8yhxdu.woff2?t=1630033759944") format("woff2"), url("//at.alicdn.com/t/font_1031158_u69w8yhxdu.woff?t=1630033759944") format("woff"), url("//at.alicdn.com/t/font_1031158_u69w8yhxdu.ttf?t=1630033759944") format("truetype"); }
</style></defs><path d="M170.666667 170.666667a128 128 0 0 0-128 128v426.666666a128 128 0 0 0 128 128h298.666666V170.666667H170.666667z m384 682.666666h298.666666a128 128 0 0 0 128-128V298.666667a128 128 0 0 0-128-128h-298.666666v682.666666zM371.498667 311.168a42.666667 42.666667 0 0 1 0 60.330667L230.997333 512l140.501334 140.501333a42.666667 42.666667 0 1 1-60.330667 60.330667l-170.666667-170.666667a42.666667 42.666667 0 0 1 0-60.330666l170.666667-170.666667a42.666667 42.666667 0 0 1 60.330667 0z m281.002666 60.330667a42.666667 42.666667 0 0 1 60.330667-60.330667l170.666667 170.666667a42.666667 42.666667 0 0 1 0 60.330666l-170.666667 170.666667a42.666667 42.666667 0 0 1-60.330667-60.330667L793.002667 512l-140.501334-140.501333z" p-id="17012"></path></svg>