<?xml version="1.0" standalone="no"?><!DOCTYPE svg PUBLIC "-//W3C//DTD SVG 1.1//EN" "http://www.w3.org/Graphics/SVG/1.1/DTD/svg11.dtd"><svg t="1647825077676" class="icon" viewBox="0 0 1024 1024" version="1.1" xmlns="http://www.w3.org/2000/svg" p-id="4601" xmlns:xlink="http://www.w3.org/1999/xlink" width="16" height="16"><defs><style type="text/css">@font-face { font-family: feedback-iconfont; src: url("//at.alicdn.com/t/font_1031158_u69w8yhxdu.woff2?t=1630033759944") format("woff2"), url("//at.alicdn.com/t/font_1031158_u69w8yhxdu.woff?t=1630033759944") format("woff"), url("//at.alicdn.com/t/font_1031158_u69w8yhxdu.ttf?t=1630033759944") format("truetype"); }
</style></defs><path d="M919.009 414.181c0-58.821-12.066-110.101-36.197-152.334-24.132-43.741-55.805-78.429-95.021-107.086-39.214-28.657-82.955-49.772-134.235-63.346-49.772-13.573-101.053-21.115-153.841-21.115-51.281 0-101.053 7.54-149.316 24.132-48.265 15.084-88.987 37.706-125.185 67.871-36.197 30.163-64.854 66.363-85.969 110.101-21.115 43.741-31.674 93.513-31.674 147.808 0 21.115 1.508 40.722 3.018 58.821 1.508 18.098 6.032 34.69 10.559 49.772 6.032 15.084 13.573 30.163 22.624 45.248s21.115 30.163 36.197 46.755l107.086-92.003c-15.084-15.084-25.639-33.182-31.674-49.772-6.032-18.098-7.54-37.706-7.54-60.331 0-34.69 7.54-66.363 22.624-92.003 15.084-27.149 34.69-49.772 58.821-67.871 24.132-18.098 52.789-31.674 82.955-40.722 30.163-9.050 61.839-13.573 93.513-13.573 33.182 0 66.363 4.525 99.545 12.066 31.674 7.54 60.331 19.607 85.969 37.706 25.639 16.59 45.248 39.214 60.331 66.363 15.084 27.149 22.624 60.331 22.624 98.035 0 25.639-4.525 48.265-13.573 67.871-9.050 19.607-21.115 37.706-37.706 51.281-16.59 13.573-34.69 24.132-54.297 31.674-21.115 7.54-42.23 10.559-66.363 10.559-27.149 0-51.281-4.525-75.413-12.066v-257.91h-146.299v438.901c0 30.163-15.084 45.248-43.741 45.248-13.573 0-25.639-3.018-37.706-9.050-12.066-6.032-21.115-13.573-30.163-22.624v126.691c4.525 7.54 12.066 13.573 19.607 18.098 9.050 4.525 18.098 9.050 28.657 12.066 10.559 3.018 21.115 6.032 31.674 6.032 10.559 1.508 19.607 1.508 27.149 1.508 54.297 0 92.003-15.084 116.137-43.741 24.132-28.657 36.197-69.379 36.197-122.167v-79.937c18.098 9.050 36.197 13.573 57.313 16.59s39.214 3.018 58.821 3.018c18.098 0 36.197-3.018 54.297-7.54 18.098-4.525 34.69-12.066 49.772-19.607 52.789-25.639 93.513-60.331 125.185-105.578 28.657-43.741 45.248-95.021 45.248-153.841z" fill="" p-id="4602"></path></svg>