<?xml version="1.0" standalone="no"?><!DOCTYPE svg PUBLIC "-//W3C//DTD SVG 1.1//EN" "http://www.w3.org/Graphics/SVG/1.1/DTD/svg11.dtd"><svg t="1647825343758" class="icon" viewBox="0 0 1024 1024" version="1.1" xmlns="http://www.w3.org/2000/svg" p-id="19492" xmlns:xlink="http://www.w3.org/1999/xlink" width="16" height="16"><defs><style type="text/css">@font-face { font-family: feedback-iconfont; src: url("//at.alicdn.com/t/font_1031158_u69w8yhxdu.woff2?t=1630033759944") format("woff2"), url("//at.alicdn.com/t/font_1031158_u69w8yhxdu.woff?t=1630033759944") format("woff"), url("//at.alicdn.com/t/font_1031158_u69w8yhxdu.ttf?t=1630033759944") format("truetype"); }
</style></defs><path d="M890.5 378.5c-61.5 0-113.4 41.8-128.8 98.5H640.8c-15.4-56.7-67.3-98.5-128.8-98.5S398.6 420.3 383.2 477H262.3c-15.4-56.7-67.3-98.5-128.8-98.5C59.9 378.5 0 438.4 0 512s59.9 133.5 133.5 133.5c61.5 0 113.4-41.8 128.8-98.5h120.8c15.4 56.7 67.3 98.5 128.8 98.5s113.4-41.8 128.8-98.5h120.8c15.4 56.7 67.3 98.5 128.8 98.5 73.6 0 133.5-59.9 133.5-133.5s-59.7-133.5-133.3-133.5z m-757 211C90.7 589.5 56 554.8 56 512s34.8-77.5 77.5-77.5S211 469.2 211 512s-34.7 77.5-77.5 77.5z m378.5 0c-42.8 0-77.5-34.8-77.5-77.5s34.8-77.5 77.5-77.5c42.8 0 77.5 34.8 77.5 77.5s-34.7 77.5-77.5 77.5z m378.5 0c-42.8 0-77.5-34.8-77.5-77.5s34.8-77.5 77.5-77.5S968 469.2 968 512s-34.7 77.5-77.5 77.5z" p-id="19493"></path></svg>