<?xml version="1.0" standalone="no"?><!DOCTYPE svg PUBLIC "-//W3C//DTD SVG 1.1//EN" "http://www.w3.org/Graphics/SVG/1.1/DTD/svg11.dtd"><svg t="1647825681859" class="icon" viewBox="0 0 1170 1024" version="1.1" xmlns="http://www.w3.org/2000/svg" p-id="37230" xmlns:xlink="http://www.w3.org/1999/xlink" width="18.28125" height="16"><defs><style type="text/css">@font-face { font-family: feedback-iconfont; src: url("//at.alicdn.com/t/font_1031158_u69w8yhxdu.woff2?t=1630033759944") format("woff2"), url("//at.alicdn.com/t/font_1031158_u69w8yhxdu.woff?t=1630033759944") format("woff"), url("//at.alicdn.com/t/font_1031158_u69w8yhxdu.ttf?t=1630033759944") format("truetype"); }
</style></defs><path d="M0 512q0-74.285714 29.142857-142t78-116.571429 116.571429-78T365.714286 146.285714h438.857143q74.285714 0 142 29.142857t116.571428 78 78 116.571429 29.142857 142-29.142857 142-78 116.571429-116.571428 78-142 29.142857H365.714286q-74.285714 0-142-29.142857t-116.571429-78-78-116.571429T0 512z m804.571429 292.571429q59.428571 0 113.428571-23.142858T1011.428571 718.857143t62.571429-93.428572T1097.142857 512t-23.142857-113.428571T1011.428571 305.142857t-93.428571-62.571428T804.571429 219.428571t-113.428572 23.142858T597.714286 305.142857 535.142857 398.571429 512 512t23.142857 113.428571T597.714286 718.857143t93.428571 62.571428T804.571429 804.571429z" p-id="37231"></path></svg>