<?xml version="1.0" standalone="no"?><!DOCTYPE svg PUBLIC "-//W3C//DTD SVG 1.1//EN" "http://www.w3.org/Graphics/SVG/1.1/DTD/svg11.dtd"><svg t="1647825728385" class="icon" viewBox="0 0 1024 1024" version="1.1" xmlns="http://www.w3.org/2000/svg" p-id="40412" xmlns:xlink="http://www.w3.org/1999/xlink" width="16" height="16"><defs><style type="text/css">@font-face { font-family: feedback-iconfont; src: url("//at.alicdn.com/t/font_1031158_u69w8yhxdu.woff2?t=1630033759944") format("woff2"), url("//at.alicdn.com/t/font_1031158_u69w8yhxdu.woff?t=1630033759944") format("woff"), url("//at.alicdn.com/t/font_1031158_u69w8yhxdu.ttf?t=1630033759944") format("truetype"); }
</style></defs><path d="M400 317.7h73.9V656c0 4.4 3.6 8 8 8h60c4.4 0 8-3.6 8-8V317.7H624c6.7 0 10.4-7.7 6.3-12.9L518.3 163c-3.2-4.1-9.4-4.1-12.6 0l-112 141.7c-4.1 5.3-0.4 13 6.3 13z" p-id="40413"></path><path d="M878 626h-60c-4.4 0-8 3.6-8 8v154H214V634c0-4.4-3.6-8-8-8h-60c-4.4 0-8 3.6-8 8v198c0 17.7 14.3 32 32 32h684c17.7 0 32-14.3 32-32V634c0-4.4-3.6-8-8-8z" p-id="40414"></path></svg>