<?xml version="1.0" standalone="no"?><!DOCTYPE svg PUBLIC "-//W3C//DTD SVG 1.1//EN" "http://www.w3.org/Graphics/SVG/1.1/DTD/svg11.dtd"><svg t="1669451735443" class="icon" viewBox="0 0 1024 1024" version="1.1" xmlns="http://www.w3.org/2000/svg" p-id="4303" xmlns:xlink="http://www.w3.org/1999/xlink" width="16" height="16"><path d="M872.32512 116.43904 204.55424 116.43904c-34.21184 0-62.0544 27.82208-62.0544 62.04416L142.49984 845.5168c0 34.2016 27.84256 62.04416 62.0544 62.04416l667.77088 0c34.21184 0 62.0544-27.84256 62.0544-62.04416L934.37952 178.4832C934.37952 144.26112 906.53696 116.43904 872.32512 116.43904zM830.2592 187.06432c14.6944 0 26.59328 11.90912 26.59328 26.60352 0 14.68416-11.89888 26.59328-26.59328 26.59328s-26.59328-11.90912-26.59328-26.59328C803.66592 198.97344 815.5648 187.06432 830.2592 187.06432zM734.96576 187.06432c14.6944 0 26.59328 11.90912 26.59328 26.60352 0 14.68416-11.89888 26.59328-26.59328 26.59328s-26.59328-11.90912-26.59328-26.59328C708.37248 198.97344 720.27136 187.06432 734.96576 187.06432zM863.46752 836.64896 213.41184 836.64896 213.41184 306.26816l650.04544 0L863.45728 836.64896zM807.24992 433.48992l-532.48 0 0 228.70016 532.48 0L807.24992 433.48992zM599.04 634.88 458.24 634.88l0-48.64L599.04 586.24 599.04 634.88zM776.96 634.88l-140.8 0 0-48.64 140.8 0L776.96 634.88zM788.97152 492.27776l-8.3968 8.3968-14.40768-14.39744-14.40768 14.39744-8.40704-8.3968L757.76 477.87008l-14.40768-14.40768 8.40704-8.3968 14.40768 14.40768 14.40768-14.40768 8.40704 8.3968-14.40768 14.40768L788.97152 492.27776z" p-id="4304"></path></svg>